<svg xmlns="http://www.w3.org/2000/svg" width="1600" height="900" viewBox="0 0 1600 900">
  <defs>
    <radialGradient id="nebula" cx="0.3" cy="0.2" r="0.8">
      <stop offset="0%" stop-color="#6e7cff" stop-opacity="0.6"/>
      <stop offset="40%" stop-color="#334077" stop-opacity="0.35"/>
      <stop offset="100%" stop-color="#0b0e1f" stop-opacity="0.1"/>
    </radialGradient>
  </defs>
  <rect width="1600" height="900" fill="#0b0e1f"/>
  <rect width="1600" height="900" fill="url(#nebula)"/>
  <g fill="#ffffff" opacity="0.6">
    <circle cx="120" cy="80" r="1.5"/>
    <circle cx="240" cy="140" r="1"/>
    <circle cx="480" cy="60" r="1.2"/>
    <circle cx="760" cy="120" r="1.4"/>
    <circle cx="980" cy="40" r="1"/>
    <circle cx="1240" cy="160" r="1.6"/>
    <circle cx="1480" cy="90" r="1.1"/>
    <circle cx="340" cy="320" r="1.2"/>
    <circle cx="620" cy="260" r="1"/>
    <circle cx="880" cy="300" r="1.4"/>
    <circle cx="1160" cy="280" r="1"/>
    <circle cx="1440" cy="340" r="1.5"/>
    <circle cx="200" cy="520" r="1.1"/>
    <circle cx="520" cy="480" r="1.4"/>
    <circle cx="820" cy="520" r="1.2"/>
    <circle cx="1100" cy="500" r="1.3"/>
    <circle cx="1380" cy="540" r="1"/>
    <circle cx="300" cy="740" r="1.5"/>
    <circle cx="640" cy="700" r="1.2"/>
    <circle cx="940" cy="740" r="1.1"/>
    <circle cx="1280" cy="720" r="1.4"/>
    <circle cx="1500" cy="780" r="1"/>
  </g>
</svg>
